<svg xmlns="http://www.w3.org/2000/svg" xmlns:xlink="http://www.w3.org/1999/xlink" width="209.247" height="48" viewBox="0 0 209.247 48"><defs><clipPath id="a"><rect width="209.247" height="48" fill="none"/></clipPath></defs><g clip-path="url(#a)"><path d="M22.761,3.9a13.338,13.338,0,1,0,3.9,9.428,13.3,13.3,0,0,0-3.9-9.428M13.333,21.331a8,8,0,1,1,8-8,7.979,7.979,0,0,1-8,8" transform="translate(-0.001 -0.001)" fill="#0c660c"/><path d="M26.664,87.93,13.332,101.262,0,87.93v-8L13.332,93.258,26.664,79.926Z" transform="translate(0 -53.262)" fill="#0c660c"/><path d="M376.964,33.109h-8.819V61.34h-5.38V33.109h-8.819V28.062h23.017Z" transform="translate(-235.868 -18.7)" fill="#0c660c"/><path d="M438.8,71.406a11.27,11.27,0,0,0-11.7-11.426c-6.766,0-11.87,4.881-11.87,11.536s5.047,11.536,11.926,11.536c5.711,0,9.982-3.383,11.259-8.207h-5.271a6.2,6.2,0,0,1-5.988,3.827,6.45,6.45,0,0,1-6.6-6.322h18.192Zm-17.8-2.829a6.375,6.375,0,0,1,6.158-4.16,6,6,0,0,1,5.878,4.16Z" transform="translate(-276.702 -39.97)" fill="#0c660c"/><path d="M491.634,71.518c0-6.489,5.047-11.536,11.924-11.536,5.879,0,10.316,3.605,11.536,8.707H509.6a6.655,6.655,0,1,0,0,5.657h5.491c-1.22,5.1-5.657,8.707-11.536,8.707-6.877,0-11.924-5.047-11.924-11.536" transform="translate(-327.622 -39.972)" fill="#0c660c"/><path d="M589.337,34.844V48.932h-5.269V35.343a4.119,4.119,0,0,0-4.16-4.159,4.332,4.332,0,0,0-4.27,4.381V48.932h-5.269V9.442h5.269V28.355a8.256,8.256,0,0,1,13.7,6.489" transform="translate(-380.09 -6.292)" fill="#0c660c"/><path d="M128.783,26.681a16.884,16.884,0,1,0,16.884,16.883,16.888,16.888,0,0,0-16.884-16.883m0,28.45a11.566,11.566,0,1,1,11.57-11.566,11.433,11.433,0,0,1-11.57,11.566" transform="translate(-74.571 -17.78)"/><rect width="5.208" height="39.029" transform="translate(77.072 3.199)"/><path d="M289.157,77.631c-1.041,0-2.028-.55-2.028-2.469V59.98h-5.208v2.3a10.315,10.315,0,0,0-7.069-2.742,11.406,11.406,0,0,0,0,22.805,10.114,10.114,0,0,0,7.837-3.673,6.5,6.5,0,0,0,5.922,3.673,3.629,3.629,0,0,0,1.754-.44V77.631Zm-13.648-.11a6.579,6.579,0,1,1,6.579-6.579,6.529,6.529,0,0,1-6.579,6.579" transform="translate(-175.743 -39.677)"/></g></svg>