<svg xmlns="http://www.w3.org/2000/svg" xmlns:xlink="http://www.w3.org/1999/xlink" version="1.1" width="209.247" height="100" viewBox="0 0 500 500" xml:space="preserve">
<desc>Created with Fabric.js 3.5.0</desc>
<defs>
</defs>
<rect x="0" y="0" width="100%" height="100%" fill="#ffffff"/>
<g transform="matrix(1 0 0 1 513.5148 522.4549)" style="" id="777764">
		
<path xml:space="preserve" font-family="Oswald" font-size="180" font-style="normal" font-weight="bold" style="stroke: none; stroke-width: 1; stroke-dasharray: none; stroke-linecap: butt; stroke-dashoffset: 0; stroke-linejoin: miter; stroke-miterlimit: 4; is-custom-font: none; font-file-url: none; fill: rgb(0,0,0); fill-rule: nonzero; opacity: 1; white-space: pre;" d="M-261.45 58.71L-261.45 58.71Q-277.83 58.71-287.37 52.95Q-296.91 47.19-301.05 36.39Q-305.19 25.59-305.19 10.65L-305.19 10.65L-305.19-43.53Q-305.19-58.65-301.05-69.27Q-296.91-79.89-287.37-85.56Q-277.83-91.23-261.45-91.23L-261.45-91.23Q-244.89-91.23-235.26-85.56Q-225.63-79.89-221.49-69.27Q-217.35-58.65-217.35-43.53L-217.35-43.53L-217.35 10.65Q-217.35 25.59-221.49 36.39Q-225.63 47.19-235.26 52.95Q-244.89 58.71-261.45 58.71ZM-261.45 35.85L-261.45 35.85Q-256.41 35.85-254.07 33.33Q-251.73 30.81-251.01 26.85Q-250.29 22.89-250.29 18.75L-250.29 18.75L-250.29-51.45Q-250.29-55.77-251.01-59.64Q-251.73-63.51-254.07-66.03Q-256.41-68.55-261.45-68.55L-261.45-68.55Q-266.13-68.55-268.47-66.03Q-270.81-63.51-271.53-59.64Q-272.25-55.77-272.25-51.45L-272.25-51.45L-272.25 18.75Q-272.25 22.89-271.62 26.85Q-270.99 30.81-268.74 33.33Q-266.49 35.85-261.45 35.85Z"/><path xml:space="preserve" font-family="Oswald" font-size="180" font-style="normal" font-weight="bold" style="stroke: none; stroke-width: 1; stroke-dasharray: none; stroke-linecap: butt; stroke-dashoffset: 0; stroke-linejoin: miter; stroke-miterlimit: 4; is-custom-font: none; font-file-url: none; fill: rgb(0,0,0); fill-rule: nonzero; opacity: 1; white-space: pre;" d="M-160.65 56.55L-189.81 56.55L-189.81-89.25L-160.65-89.25L-160.65 56.55Z"/><path xml:space="preserve" font-family="Oswald" font-size="180" font-style="normal" font-weight="bold" style="stroke: none; stroke-width: 1; stroke-dasharray: none; stroke-linecap: butt; stroke-dashoffset: 0; stroke-linejoin: miter; stroke-miterlimit: 4; is-custom-font: none; font-file-url: none; fill: rgb(0,0,0); fill-rule: nonzero; opacity: 1; white-space: pre;" d="M-112.05 58.35L-112.05 58.35Q-119.97 58.35-125.37 54.57Q-130.77 50.79-133.47 44.94Q-136.17 39.09-136.17 32.97L-136.17 32.97Q-136.17 23.25-132.30 16.59Q-128.43 9.93-122.13 5.43Q-115.83 0.93-108.27-2.22Q-100.71-5.37-93.33-7.89L-93.33-7.89L-93.33-18.33Q-93.33-21.03-93.87-23.10Q-94.41-25.17-95.67-26.34Q-96.93-27.51-99.45-27.51L-99.45-27.51Q-101.97-27.51-103.32-26.43Q-104.67-25.35-105.21-23.46Q-105.75-21.57-105.93-19.23L-105.93-19.23L-106.65-11.67L-134.01-12.75Q-133.11-31.47-124.02-40.38Q-114.93-49.29-96.75-49.29L-96.75-49.29Q-80.91-49.29-73.08-40.56Q-65.25-31.83-65.25-17.97L-65.25-17.97L-65.25 30.63Q-65.25 37.11-64.98 41.97Q-64.71 46.83-64.26 50.43Q-63.81 54.03-63.45 56.55L-63.45 56.55L-89.73 56.55Q-90.27 52.41-90.99 47.55Q-91.71 42.69-92.07 41.79L-92.07 41.79Q-93.87 48.27-98.82 53.31Q-103.77 58.35-112.05 58.35ZM-101.61 38.55L-101.61 38.55Q-99.81 38.55-98.28 37.83Q-96.75 37.11-95.49 35.85Q-94.23 34.59-93.33 33.33L-93.33 33.33L-93.33 4.89Q-96.93 7.05-99.99 9.30Q-103.05 11.55-105.21 14.25Q-107.37 16.95-108.54 20.10Q-109.71 23.25-109.71 27.21L-109.71 27.21Q-109.71 32.43-107.55 35.49Q-105.39 38.55-101.61 38.55Z"/><path xml:space="preserve" font-family="Oswald" font-size="180" font-style="normal" font-weight="bold" style="stroke: none; stroke-width: 1; stroke-dasharray: none; stroke-linecap: butt; stroke-dashoffset: 0; stroke-linejoin: miter; stroke-miterlimit: 4; is-custom-font: none; font-file-url: none; fill: rgb(0,0,0); fill-rule: nonzero; opacity: 1; white-space: pre;" d="M7.65 56.55L-24.75 56.55L-24.75-65.31L-46.71-65.31L-46.71-89.25L29.43-89.25L29.43-65.31L7.65-65.31L7.65 56.55Z"/><path xml:space="preserve" font-family="Oswald" font-size="180" font-style="normal" font-weight="bold" style="stroke: none; stroke-width: 1; stroke-dasharray: none; stroke-linecap: butt; stroke-dashoffset: 0; stroke-linejoin: miter; stroke-miterlimit: 4; is-custom-font: none; font-file-url: none; fill: rgb(12,102,12); fill-rule: nonzero; opacity: 1; white-space: pre;" d="M80.19 58.35L80.19 58.35Q68.85 58.35 60.75 54.30Q52.65 50.25 48.33 42.42Q44.01 34.59 44.01 23.61L44.01 23.61L44.01-14.55Q44.01-25.71 48.33-33.45Q52.65-41.19 60.84-45.24Q69.03-49.29 80.19-49.29L80.19-49.29Q91.71-49.29 99.36-45.33Q107.01-41.37 110.88-33.63Q114.75-25.89 114.75-14.55L114.75-14.55L114.75 6.33L72.99 6.33L72.99 26.31Q72.99 30.27 73.89 32.79Q74.79 35.31 76.41 36.39Q78.03 37.47 80.19 37.47L80.19 37.47Q82.35 37.47 84.06 36.48Q85.77 35.49 86.76 33.33Q87.75 31.17 87.75 27.39L87.75 27.39L87.75 16.41L114.75 16.41L114.75 26.49Q114.75 42.33 105.57 50.34Q96.39 58.35 80.19 58.35ZM72.99-16.17L72.99-7.35L87.75-7.35L87.75-17.79Q87.75-21.93 86.76-24.27Q85.77-26.61 84.06-27.51Q82.35-28.41 80.01-28.41L80.01-28.41Q77.85-28.41 76.32-27.33Q74.79-26.25 73.89-23.64Q72.99-21.03 72.99-16.17L72.99-16.17Z"/><path xml:space="preserve" font-family="Oswald" font-size="180" font-style="normal" font-weight="bold" style="stroke: none; stroke-width: 1; stroke-dasharray: none; stroke-linecap: butt; stroke-dashoffset: 0; stroke-linejoin: miter; stroke-miterlimit: 4; is-custom-font: none; font-file-url: none; fill: rgb(12,102,12); fill-rule: nonzero; opacity: 1; white-space: pre;" d="M172.89 58.35L172.89 58.35Q161.55 58.35 153.54 54.21Q145.53 50.07 141.21 42.33Q136.89 34.59 136.89 23.61L136.89 23.61L136.89-14.55Q136.89-25.71 141.21-33.45Q145.53-41.19 153.54-45.24Q161.55-49.29 172.89-49.29L172.89-49.29Q184.05-49.29 191.88-45.87Q199.71-42.45 203.85-35.52Q207.99-28.59 207.99-17.97L207.99-17.97L207.99-6.99L179.73-6.99L179.73-18.87Q179.73-23.01 178.92-25.26Q178.11-27.51 176.58-28.41Q175.05-29.31 172.89-29.31L172.89-29.31Q170.73-29.31 169.29-28.14Q167.85-26.97 167.13-24.36Q166.41-21.75 166.41-17.07L166.41-17.07L166.41 26.13Q166.41 33.15 168.12 35.67Q169.83 38.19 173.07 38.19L173.07 38.19Q175.41 38.19 176.85 37.20Q178.29 36.21 179.01 33.96Q179.73 31.71 179.73 27.93L179.73 27.93L179.73 14.07L207.99 14.07L207.99 26.67Q207.99 37.11 203.76 44.22Q199.53 51.33 191.70 54.84Q183.87 58.35 172.89 58.35Z"/><path xml:space="preserve" font-family="Oswald" font-size="180" font-style="normal" font-weight="bold" style="stroke: none; stroke-width: 1; stroke-dasharray: none; stroke-linecap: butt; stroke-dashoffset: 0; stroke-linejoin: miter; stroke-miterlimit: 4; is-custom-font: none; font-file-url: none; fill: rgb(12,102,12); fill-rule: nonzero; opacity: 1; white-space: pre;" d="M260.91 56.55L231.75 56.55L231.75-89.25L260.91-89.25L260.91-38.31Q266.67-44.07 272.97-46.68Q279.27-49.29 286.47-49.29L286.47-49.29Q292.77-49.29 297-46.14Q301.23-42.99 303.39-37.50Q305.55-32.01 305.55-24.99L305.55-24.99L305.55 56.55L276.39 56.55L276.39-20.85Q276.39-24.63 275.13-26.61Q273.87-28.59 270.45-28.59L270.45-28.59Q268.65-28.59 266.13-27.60Q263.61-26.61 260.91-24.81L260.91-24.81L260.91 56.55Z"/></g>
<g transform="matrix(4.3446 0 0 4.3446 103.3304 453.6188)" id="25428" clip-path="url(#CLIPPATH_16)">
<clipPath id="CLIPPATH_16">
	<rect transform="matrix(1 0 0 1 91.3022 10.6757)" id="a" x="-104.6235" y="-24" rx="0" ry="0" width="209.247" height="48"/>
</clipPath>
<path style="stroke: none; stroke-width: 1; stroke-dasharray: none; stroke-linecap: butt; stroke-dashoffset: 0; stroke-linejoin: miter; stroke-miterlimit: 4; is-custom-font: none; font-file-url: none; fill: rgb(12,102,12); fill-rule: nonzero; opacity: 1;" transform=" translate(-13.3223, -13.3253)" d="M 22.761 3.9 a 13.338 13.338 0 1 0 3.9 9.428 a 13.3 13.3 0 0 0 -3.9 -9.428 M 13.333 21.331 a 8 8 0 1 1 8 -8 a 7.979 7.979 0 0 1 -8 8" stroke-linecap="round"/>
</g>
<g transform="matrix(4.3446 0 0 4.3446 103.3768 557.9222)" id="630683" clip-path="url(#CLIPPATH_17)">
<clipPath id="CLIPPATH_17">
	<rect transform="matrix(1 0 0 1 91.2915 -13.332)" id="a" x="-104.6235" y="-24" rx="0" ry="0" width="209.247" height="48"/>
</clipPath>
<path style="stroke: none; stroke-width: 1; stroke-dasharray: none; stroke-linecap: butt; stroke-dashoffset: 0; stroke-linejoin: miter; stroke-miterlimit: 4; is-custom-font: none; font-file-url: none; fill: rgb(12,102,12); fill-rule: nonzero; opacity: 1;" transform=" translate(-13.332, -90.594)" d="M 26.664 87.93 L 13.332 101.262 L 0 87.93 v -8 L 13.332 93.258 L 26.664 79.926 Z" stroke-linecap="round"/>
</g>
</svg>